<?xml version="1.0" encoding="UTF-8" standalone="no"?>
<!DOCTYPE svg PUBLIC "-//W3C//DTD SVG 1.1//EN"
 "http://www.w3.org/Graphics/SVG/1.1/DTD/svg11.dtd">
<!-- Generated by graphviz version 3.0.0 (20220226.1711)
 -->
<!-- Title: adc Pages: 1 -->
<svg width="115pt" height="196pt"
 viewBox="0.00 0.00 115.00 196.00" xmlns="http://www.w3.org/2000/svg" xmlns:xlink="http://www.w3.org/1999/xlink">
<g id="graph0" class="graph" transform="scale(1 1) rotate(0) translate(4 192)">
<title>adc</title>
<polygon fill="white" stroke="transparent" points="-4,4 -4,-192 111,-192 111,4 -4,4"/>
<!-- Node1 -->
<g id="node1" class="node">
<title>Node1</title>
<g id="a_node1"><a xlink:title="8&#45;bit 8&#45;step ADC modul">
<polygon fill="#bfbfbf" stroke="black" points="37.5,-112.5 37.5,-131.5 69.5,-131.5 69.5,-112.5 37.5,-112.5"/>
<text text-anchor="middle" x="53.5" y="-119.5" font-family="Helvetica,sans-Serif" font-size="10.00">adc</text>
</a>
</g>
</g>
<!-- Node3 -->
<g id="node3" class="node">
<title>Node3</title>
<g id="a_node3"><a xlink:href="class_m_p_p_t.html" target="_top" xlink:title="MPPT modul &#45; Ikke impementationsspecifik.">
<polygon fill="white" stroke="black" points="31.5,-56.5 31.5,-75.5 75.5,-75.5 75.5,-56.5 31.5,-56.5"/>
<text text-anchor="middle" x="53.5" y="-63.5" font-family="Helvetica,sans-Serif" font-size="10.00">MPPT</text>
</a>
</g>
</g>
<!-- Node1&#45;&gt;Node3 -->
<g id="edge2" class="edge">
<title>Node1&#45;&gt;Node3</title>
<path fill="none" stroke="midnightblue" d="M53.5,-101.8C53.5,-92.91 53.5,-82.78 53.5,-75.75"/>
<polygon fill="midnightblue" stroke="midnightblue" points="50,-102.08 53.5,-112.08 57,-102.08 50,-102.08"/>
</g>
<!-- Node2 -->
<g id="node2" class="node">
<title>Node2</title>
<g id="a_node2"><a xlink:href="classadder.html" target="_top" xlink:title="Modul adder består af en process der syntesiterer en clock aktiveret 8bit adder.">
<polygon fill="white" stroke="black" points="33,-168.5 33,-187.5 74,-187.5 74,-168.5 33,-168.5"/>
<text text-anchor="middle" x="53.5" y="-175.5" font-family="Helvetica,sans-Serif" font-size="10.00">adder</text>
</a>
</g>
</g>
<!-- Node2&#45;&gt;Node1 -->
<g id="edge1" class="edge">
<title>Node2&#45;&gt;Node1</title>
<path fill="none" stroke="midnightblue" d="M53.5,-157.8C53.5,-148.91 53.5,-138.78 53.5,-131.75"/>
<polygon fill="midnightblue" stroke="midnightblue" points="50,-158.08 53.5,-168.08 57,-158.08 50,-158.08"/>
</g>
<!-- Node4 -->
<g id="node4" class="node">
<title>Node4</title>
<g id="a_node4"><a xlink:href="class_d_e0___c_v__golden__top.html" target="_top" xlink:title="Testbench til implementationsspecifik opsætning.">
<polygon fill="white" stroke="black" points="0,-0.5 0,-19.5 107,-19.5 107,-0.5 0,-0.5"/>
<text text-anchor="middle" x="53.5" y="-7.5" font-family="Helvetica,sans-Serif" font-size="10.00">DE0_CV_golden_top</text>
</a>
</g>
</g>
<!-- Node3&#45;&gt;Node4 -->
<g id="edge3" class="edge">
<title>Node3&#45;&gt;Node4</title>
<path fill="none" stroke="midnightblue" d="M53.5,-45.8C53.5,-36.91 53.5,-26.78 53.5,-19.75"/>
<polygon fill="midnightblue" stroke="midnightblue" points="50,-46.08 53.5,-56.08 57,-46.08 50,-46.08"/>
</g>
</g>
</svg>
