<?xml version="1.0" encoding="UTF-8" standalone="no"?>
<!DOCTYPE svg PUBLIC "-//W3C//DTD SVG 1.1//EN"
 "http://www.w3.org/Graphics/SVG/1.1/DTD/svg11.dtd">
<!-- Generated by graphviz version 3.0.0 (20220226.1711)
 -->
<!-- Title: MPPT Pages: 1 -->
<svg width="285pt" height="252pt"
 viewBox="0.00 0.00 284.50 252.00" xmlns="http://www.w3.org/2000/svg" xmlns:xlink="http://www.w3.org/1999/xlink">
<g id="graph0" class="graph" transform="scale(1 1) rotate(0) translate(4 248)">
<title>MPPT</title>
<polygon fill="white" stroke="transparent" points="-4,4 -4,-248 280.5,-248 280.5,4 -4,4"/>
<!-- Node1 -->
<g id="node1" class="node">
<title>Node1</title>
<g id="a_node1"><a xlink:title=" ">
<polygon fill="#bfbfbf" stroke="black" points="79.5,-56.5 79.5,-75.5 123.5,-75.5 123.5,-56.5 79.5,-56.5"/>
<text text-anchor="middle" x="101.5" y="-63.5" font-family="Helvetica,sans-Serif" font-size="10.00">MPPT</text>
</a>
</g>
</g>
<!-- Node8 -->
<g id="node8" class="node">
<title>Node8</title>
<g id="a_node8"><a xlink:href="class_d_e0___c_v__golden__top.html" target="_top" xlink:title=" ">
<polygon fill="white" stroke="black" points="48,-0.5 48,-19.5 155,-19.5 155,-0.5 48,-0.5"/>
<text text-anchor="middle" x="101.5" y="-7.5" font-family="Helvetica,sans-Serif" font-size="10.00">DE0_CV_golden_top</text>
</a>
</g>
</g>
<!-- Node1&#45;&gt;Node8 -->
<g id="edge7" class="edge">
<title>Node1&#45;&gt;Node8</title>
<path fill="none" stroke="midnightblue" d="M101.5,-45.8C101.5,-36.91 101.5,-26.78 101.5,-19.75"/>
<polygon fill="midnightblue" stroke="midnightblue" points="98,-46.08 101.5,-56.08 105,-46.08 98,-46.08"/>
</g>
<!-- Node2 -->
<g id="node2" class="node">
<title>Node2</title>
<g id="a_node2"><a xlink:href="classadc.html" target="_top" xlink:title=" ">
<polygon fill="white" stroke="black" points="4.5,-112.5 4.5,-131.5 36.5,-131.5 36.5,-112.5 4.5,-112.5"/>
<text text-anchor="middle" x="20.5" y="-119.5" font-family="Helvetica,sans-Serif" font-size="10.00">adc</text>
</a>
</g>
</g>
<!-- Node2&#45;&gt;Node1 -->
<g id="edge1" class="edge">
<title>Node2&#45;&gt;Node1</title>
<path fill="none" stroke="midnightblue" d="M42.07,-106.62C56.86,-96.76 76.01,-83.99 88.52,-75.65"/>
<polygon fill="midnightblue" stroke="midnightblue" points="39.89,-103.86 33.51,-112.32 43.78,-109.69 39.89,-103.86"/>
</g>
<!-- Node3 -->
<g id="node3" class="node">
<title>Node3</title>
<g id="a_node3"><a xlink:href="classadder.html" target="_top" xlink:title="Modul adder består af en process der syntesiterer en clock aktiveret 8bit adder.">
<polygon fill="white" stroke="black" points="0,-168.5 0,-187.5 41,-187.5 41,-168.5 0,-168.5"/>
<text text-anchor="middle" x="20.5" y="-175.5" font-family="Helvetica,sans-Serif" font-size="10.00">adder</text>
</a>
</g>
</g>
<!-- Node3&#45;&gt;Node2 -->
<g id="edge2" class="edge">
<title>Node3&#45;&gt;Node2</title>
<path fill="none" stroke="midnightblue" d="M20.5,-157.8C20.5,-148.91 20.5,-138.78 20.5,-131.75"/>
<polygon fill="midnightblue" stroke="midnightblue" points="17,-158.08 20.5,-168.08 24,-158.08 17,-158.08"/>
</g>
<!-- Node4 -->
<g id="node4" class="node">
<title>Node4</title>
<g id="a_node4"><a xlink:href="class_p_w_m__submodule.html" target="_top" xlink:title=" ">
<polygon fill="white" stroke="black" points="54.5,-112.5 54.5,-131.5 148.5,-131.5 148.5,-112.5 54.5,-112.5"/>
<text text-anchor="middle" x="101.5" y="-119.5" font-family="Helvetica,sans-Serif" font-size="10.00">PWM_submodule</text>
</a>
</g>
</g>
<!-- Node4&#45;&gt;Node1 -->
<g id="edge3" class="edge">
<title>Node4&#45;&gt;Node1</title>
<path fill="none" stroke="midnightblue" d="M101.5,-101.8C101.5,-92.91 101.5,-82.78 101.5,-75.75"/>
<polygon fill="midnightblue" stroke="midnightblue" points="98,-102.08 101.5,-112.08 105,-102.08 98,-102.08"/>
</g>
<!-- Node5 -->
<g id="node5" class="node">
<title>Node5</title>
<g id="a_node5"><a xlink:href="classsixteen_bit_comparator.html" target="_top" xlink:title="Submodul for sixteenbitcomparator består af 2 8&#45;bit comparators der sættes sammen.">
<polygon fill="white" stroke="black" points="166.5,-112.5 166.5,-131.5 276.5,-131.5 276.5,-112.5 166.5,-112.5"/>
<text text-anchor="middle" x="221.5" y="-119.5" font-family="Helvetica,sans-Serif" font-size="10.00">sixteenBitComparator</text>
</a>
</g>
</g>
<!-- Node5&#45;&gt;Node1 -->
<g id="edge4" class="edge">
<title>Node5&#45;&gt;Node1</title>
<path fill="none" stroke="midnightblue" d="M193.13,-108.23C170.68,-98.13 139.96,-84.31 120.43,-75.52"/>
<polygon fill="midnightblue" stroke="midnightblue" points="191.93,-111.53 202.49,-112.44 194.8,-105.15 191.93,-111.53"/>
</g>
<!-- Node6 -->
<g id="node6" class="node">
<title>Node6</title>
<g id="a_node6"><a xlink:href="classeight_bit_comparator.html" target="_top" xlink:title="Submodul for eightbitcomparator består af 2 4&#45;bit comparators der sættes sammen.">
<polygon fill="white" stroke="black" points="171.5,-168.5 171.5,-187.5 271.5,-187.5 271.5,-168.5 171.5,-168.5"/>
<text text-anchor="middle" x="221.5" y="-175.5" font-family="Helvetica,sans-Serif" font-size="10.00">eightBitComparator</text>
</a>
</g>
</g>
<!-- Node6&#45;&gt;Node5 -->
<g id="edge5" class="edge">
<title>Node6&#45;&gt;Node5</title>
<path fill="none" stroke="midnightblue" d="M221.5,-157.8C221.5,-148.91 221.5,-138.78 221.5,-131.75"/>
<polygon fill="midnightblue" stroke="midnightblue" points="218,-158.08 221.5,-168.08 225,-158.08 218,-158.08"/>
</g>
<!-- Node7 -->
<g id="node7" class="node">
<title>Node7</title>
<g id="a_node7"><a xlink:href="classfour_bit_comparator.html" target="_top" xlink:title="Submodul for fourbitcomparator består udelukkende af statisk logik.">
<polygon fill="white" stroke="black" points="174,-224.5 174,-243.5 269,-243.5 269,-224.5 174,-224.5"/>
<text text-anchor="middle" x="221.5" y="-231.5" font-family="Helvetica,sans-Serif" font-size="10.00">fourBitComparator</text>
</a>
</g>
</g>
<!-- Node7&#45;&gt;Node6 -->
<g id="edge6" class="edge">
<title>Node7&#45;&gt;Node6</title>
<path fill="none" stroke="midnightblue" d="M221.5,-213.8C221.5,-204.91 221.5,-194.78 221.5,-187.75"/>
<polygon fill="midnightblue" stroke="midnightblue" points="218,-214.08 221.5,-224.08 225,-214.08 218,-214.08"/>
</g>
</g>
</svg>
