<?xml version="1.0" encoding="UTF-8" standalone="no"?>
<!DOCTYPE svg PUBLIC "-//W3C//DTD SVG 1.1//EN"
 "http://www.w3.org/Graphics/SVG/1.1/DTD/svg11.dtd">
<!-- Generated by graphviz version 3.0.0 (20220226.1711)
 -->
<!-- Title: MPPT Pages: 1 -->
<svg width="285pt" height="196pt"
 viewBox="0.00 0.00 284.50 196.00" xmlns="http://www.w3.org/2000/svg" xmlns:xlink="http://www.w3.org/1999/xlink">
<g id="graph0" class="graph" transform="scale(1 1) rotate(0) translate(4 192)">
<title>MPPT</title>
<polygon fill="white" stroke="transparent" points="-4,4 -4,-192 280.5,-192 280.5,4 -4,4"/>
<!-- Node1 -->
<g id="node1" class="node">
<title>Node1</title>
<g id="a_node1"><a xlink:title="MPPT modul &#45; Ikke impementationsspecifik.">
<polygon fill="#bfbfbf" stroke="black" points="79.5,-0.5 79.5,-19.5 123.5,-19.5 123.5,-0.5 79.5,-0.5"/>
<text text-anchor="middle" x="101.5" y="-7.5" font-family="Helvetica,sans-Serif" font-size="10.00">MPPT</text>
</a>
</g>
</g>
<!-- Node2 -->
<g id="node2" class="node">
<title>Node2</title>
<g id="a_node2"><a xlink:href="classadc.html" target="_top" xlink:title="8&#45;bit 8&#45;step ADC modul">
<polygon fill="white" stroke="black" points="4.5,-56.5 4.5,-75.5 36.5,-75.5 36.5,-56.5 4.5,-56.5"/>
<text text-anchor="middle" x="20.5" y="-63.5" font-family="Helvetica,sans-Serif" font-size="10.00">adc</text>
</a>
</g>
</g>
<!-- Node2&#45;&gt;Node1 -->
<g id="edge1" class="edge">
<title>Node2&#45;&gt;Node1</title>
<path fill="none" stroke="midnightblue" d="M42.07,-50.62C56.86,-40.76 76.01,-27.99 88.52,-19.65"/>
<polygon fill="midnightblue" stroke="midnightblue" points="39.89,-47.86 33.51,-56.32 43.78,-53.69 39.89,-47.86"/>
</g>
<!-- Node3 -->
<g id="node3" class="node">
<title>Node3</title>
<g id="a_node3"><a xlink:href="classadder.html" target="_top" xlink:title="Modul adder består af en process der syntesiterer en clock aktiveret 8bit adder.">
<polygon fill="white" stroke="black" points="0,-112.5 0,-131.5 41,-131.5 41,-112.5 0,-112.5"/>
<text text-anchor="middle" x="20.5" y="-119.5" font-family="Helvetica,sans-Serif" font-size="10.00">adder</text>
</a>
</g>
</g>
<!-- Node3&#45;&gt;Node2 -->
<g id="edge2" class="edge">
<title>Node3&#45;&gt;Node2</title>
<path fill="none" stroke="midnightblue" d="M20.5,-101.8C20.5,-92.91 20.5,-82.78 20.5,-75.75"/>
<polygon fill="midnightblue" stroke="midnightblue" points="17,-102.08 20.5,-112.08 24,-102.08 17,-102.08"/>
</g>
<!-- Node4 -->
<g id="node4" class="node">
<title>Node4</title>
<g id="a_node4"><a xlink:href="class_p_w_m__submodule.html" target="_top" xlink:title="7&#45;bit PWM modul">
<polygon fill="white" stroke="black" points="54.5,-56.5 54.5,-75.5 148.5,-75.5 148.5,-56.5 54.5,-56.5"/>
<text text-anchor="middle" x="101.5" y="-63.5" font-family="Helvetica,sans-Serif" font-size="10.00">PWM_submodule</text>
</a>
</g>
</g>
<!-- Node4&#45;&gt;Node1 -->
<g id="edge3" class="edge">
<title>Node4&#45;&gt;Node1</title>
<path fill="none" stroke="midnightblue" d="M101.5,-45.8C101.5,-36.91 101.5,-26.78 101.5,-19.75"/>
<polygon fill="midnightblue" stroke="midnightblue" points="98,-46.08 101.5,-56.08 105,-46.08 98,-46.08"/>
</g>
<!-- Node5 -->
<g id="node5" class="node">
<title>Node5</title>
<g id="a_node5"><a xlink:href="classsixteen_bit_comparator.html" target="_top" xlink:title="Submodul for sixteenbitcomparator består af 2 8&#45;bit comparators der sættes sammen.">
<polygon fill="white" stroke="black" points="166.5,-56.5 166.5,-75.5 276.5,-75.5 276.5,-56.5 166.5,-56.5"/>
<text text-anchor="middle" x="221.5" y="-63.5" font-family="Helvetica,sans-Serif" font-size="10.00">sixteenBitComparator</text>
</a>
</g>
</g>
<!-- Node5&#45;&gt;Node1 -->
<g id="edge4" class="edge">
<title>Node5&#45;&gt;Node1</title>
<path fill="none" stroke="midnightblue" d="M193.13,-52.23C170.68,-42.13 139.96,-28.31 120.43,-19.52"/>
<polygon fill="midnightblue" stroke="midnightblue" points="191.93,-55.53 202.49,-56.44 194.8,-49.15 191.93,-55.53"/>
</g>
<!-- Node6 -->
<g id="node6" class="node">
<title>Node6</title>
<g id="a_node6"><a xlink:href="classeight_bit_comparator.html" target="_top" xlink:title="Submodul for eightbitcomparator består af 2 4&#45;bit comparators der sættes sammen.">
<polygon fill="white" stroke="black" points="171.5,-112.5 171.5,-131.5 271.5,-131.5 271.5,-112.5 171.5,-112.5"/>
<text text-anchor="middle" x="221.5" y="-119.5" font-family="Helvetica,sans-Serif" font-size="10.00">eightBitComparator</text>
</a>
</g>
</g>
<!-- Node6&#45;&gt;Node5 -->
<g id="edge5" class="edge">
<title>Node6&#45;&gt;Node5</title>
<path fill="none" stroke="midnightblue" d="M221.5,-101.8C221.5,-92.91 221.5,-82.78 221.5,-75.75"/>
<polygon fill="midnightblue" stroke="midnightblue" points="218,-102.08 221.5,-112.08 225,-102.08 218,-102.08"/>
</g>
<!-- Node7 -->
<g id="node7" class="node">
<title>Node7</title>
<g id="a_node7"><a xlink:href="classfour_bit_comparator.html" target="_top" xlink:title="Submodul for fourbitcomparator består udelukkende af statisk logik.">
<polygon fill="white" stroke="black" points="174,-168.5 174,-187.5 269,-187.5 269,-168.5 174,-168.5"/>
<text text-anchor="middle" x="221.5" y="-175.5" font-family="Helvetica,sans-Serif" font-size="10.00">fourBitComparator</text>
</a>
</g>
</g>
<!-- Node7&#45;&gt;Node6 -->
<g id="edge6" class="edge">
<title>Node7&#45;&gt;Node6</title>
<path fill="none" stroke="midnightblue" d="M221.5,-157.8C221.5,-148.91 221.5,-138.78 221.5,-131.75"/>
<polygon fill="midnightblue" stroke="midnightblue" points="218,-158.08 221.5,-168.08 225,-158.08 218,-158.08"/>
</g>
</g>
</svg>
