<?xml version="1.0" encoding="UTF-8" standalone="no"?>
<!DOCTYPE svg PUBLIC "-//W3C//DTD SVG 1.1//EN"
 "http://www.w3.org/Graphics/SVG/1.1/DTD/svg11.dtd">
<!-- Generated by graphviz version 3.0.0 (20220226.1711)
 -->
<!-- Title: Graphical Class Hierarchy Pages: 1 -->
<svg width="608pt" height="104pt"
 viewBox="0.00 0.00 608.00 104.00" xmlns="http://www.w3.org/2000/svg" xmlns:xlink="http://www.w3.org/1999/xlink">
<g id="graph0" class="graph" transform="scale(1 1) rotate(0) translate(4 100)">
<title>Graphical Class Hierarchy</title>
<polygon fill="white" stroke="transparent" points="-4,4 -4,-100 604,-100 604,4 -4,4"/>
<!-- Node0 -->
<g id="node1" class="node">
<title>Node0</title>
<g id="a_node1"><a xlink:href="classadder.html" target="_top" xlink:title="Modul adder består af en process der syntesiterer en clock aktiveret 8bit adder.">
<polygon fill="white" stroke="black" points="160.5,-76.5 160.5,-95.5 201.5,-95.5 201.5,-76.5 160.5,-76.5"/>
<text text-anchor="middle" x="181" y="-83.5" font-family="Helvetica,sans-Serif" font-size="10.00">adder</text>
</a>
</g>
</g>
<!-- Node1 -->
<g id="node2" class="node">
<title>Node1</title>
<g id="a_node2"><a xlink:href="classadc.html" target="_top" xlink:title=" ">
<polygon fill="white" stroke="black" points="306,-76.5 306,-95.5 338,-95.5 338,-76.5 306,-76.5"/>
<text text-anchor="middle" x="322" y="-83.5" font-family="Helvetica,sans-Serif" font-size="10.00">adc</text>
</a>
</g>
</g>
<!-- Node0&#45;&gt;Node1 -->
<g id="edge1" class="edge">
<title>Node0&#45;&gt;Node1</title>
<path fill="none" stroke="midnightblue" d="M211.94,-86C240.79,-86 283.28,-86 305.76,-86"/>
<polygon fill="midnightblue" stroke="midnightblue" points="211.62,-82.5 201.62,-86 211.62,-89.5 211.62,-82.5"/>
</g>
<!-- Node2 -->
<g id="node3" class="node">
<title>Node2</title>
<g id="a_node3"><a xlink:href="class_m_p_p_t.html" target="_top" xlink:title=" ">
<polygon fill="white" stroke="black" points="413,-38.5 413,-57.5 457,-57.5 457,-38.5 413,-38.5"/>
<text text-anchor="middle" x="435" y="-45.5" font-family="Helvetica,sans-Serif" font-size="10.00">MPPT</text>
</a>
</g>
</g>
<!-- Node1&#45;&gt;Node2 -->
<g id="edge2" class="edge">
<title>Node1&#45;&gt;Node2</title>
<path fill="none" stroke="midnightblue" d="M348.13,-77.4C367.57,-70.74 394.19,-61.63 412.61,-55.32"/>
<polygon fill="midnightblue" stroke="midnightblue" points="346.76,-74.17 338.43,-80.72 349.03,-80.79 346.76,-74.17"/>
</g>
<!-- Node3 -->
<g id="node4" class="node">
<title>Node3</title>
<g id="a_node4"><a xlink:href="class_d_e0___c_v__golden__top.html" target="_top" xlink:title=" ">
<polygon fill="white" stroke="black" points="493,-38.5 493,-57.5 600,-57.5 600,-38.5 493,-38.5"/>
<text text-anchor="middle" x="546.5" y="-45.5" font-family="Helvetica,sans-Serif" font-size="10.00">DE0_CV_golden_top</text>
</a>
</g>
</g>
<!-- Node2&#45;&gt;Node3 -->
<g id="edge3" class="edge">
<title>Node2&#45;&gt;Node3</title>
<path fill="none" stroke="midnightblue" d="M467.33,-48C475.25,-48 483.97,-48 492.63,-48"/>
<polygon fill="midnightblue" stroke="midnightblue" points="467.11,-44.5 457.11,-48 467.11,-51.5 467.11,-44.5"/>
</g>
<!-- Node6 -->
<g id="node5" class="node">
<title>Node6</title>
<g id="a_node5"><a xlink:href="classfour_bit_comparator.html" target="_top" xlink:title="Submodul for fourbitcomparator består udelukkende af statisk logik.">
<polygon fill="white" stroke="black" points="0,-38.5 0,-57.5 95,-57.5 95,-38.5 0,-38.5"/>
<text text-anchor="middle" x="47.5" y="-45.5" font-family="Helvetica,sans-Serif" font-size="10.00">fourBitComparator</text>
</a>
</g>
</g>
<!-- Node5 -->
<g id="node6" class="node">
<title>Node5</title>
<g id="a_node6"><a xlink:href="classeight_bit_comparator.html" target="_top" xlink:title="Submodul for eightbitcomparator består af 2 4&#45;bit comparators der sættes sammen.">
<polygon fill="white" stroke="black" points="131,-38.5 131,-57.5 231,-57.5 231,-38.5 131,-38.5"/>
<text text-anchor="middle" x="181" y="-45.5" font-family="Helvetica,sans-Serif" font-size="10.00">eightBitComparator</text>
</a>
</g>
</g>
<!-- Node6&#45;&gt;Node5 -->
<g id="edge4" class="edge">
<title>Node6&#45;&gt;Node5</title>
<path fill="none" stroke="midnightblue" d="M105.39,-48C113.84,-48 122.48,-48 130.75,-48"/>
<polygon fill="midnightblue" stroke="midnightblue" points="105.23,-44.5 95.23,-48 105.23,-51.5 105.23,-44.5"/>
</g>
<!-- Node4 -->
<g id="node7" class="node">
<title>Node4</title>
<g id="a_node7"><a xlink:href="classsixteen_bit_comparator.html" target="_top" xlink:title="Submodul for sixteenbitcomparator består af 2 8&#45;bit comparators der sættes sammen.">
<polygon fill="white" stroke="black" points="267,-38.5 267,-57.5 377,-57.5 377,-38.5 267,-38.5"/>
<text text-anchor="middle" x="322" y="-45.5" font-family="Helvetica,sans-Serif" font-size="10.00">sixteenBitComparator</text>
</a>
</g>
</g>
<!-- Node5&#45;&gt;Node4 -->
<g id="edge5" class="edge">
<title>Node5&#45;&gt;Node4</title>
<path fill="none" stroke="midnightblue" d="M241.21,-48C249.69,-48 258.38,-48 266.76,-48"/>
<polygon fill="midnightblue" stroke="midnightblue" points="241.01,-44.5 231.01,-48 241.01,-51.5 241.01,-44.5"/>
</g>
<!-- Node4&#45;&gt;Node2 -->
<g id="edge6" class="edge">
<title>Node4&#45;&gt;Node2</title>
<path fill="none" stroke="midnightblue" d="M387.26,-48C396.45,-48 405.31,-48 412.81,-48"/>
<polygon fill="midnightblue" stroke="midnightblue" points="387.2,-44.5 377.2,-48 387.2,-51.5 387.2,-44.5"/>
</g>
<!-- Node7 -->
<g id="node8" class="node">
<title>Node7</title>
<g id="a_node8"><a xlink:href="class_p_w_m__submodule.html" target="_top" xlink:title=" ">
<polygon fill="white" stroke="black" points="275,-0.5 275,-19.5 369,-19.5 369,-0.5 275,-0.5"/>
<text text-anchor="middle" x="322" y="-7.5" font-family="Helvetica,sans-Serif" font-size="10.00">PWM_submodule</text>
</a>
</g>
</g>
<!-- Node7&#45;&gt;Node2 -->
<g id="edge7" class="edge">
<title>Node7&#45;&gt;Node2</title>
<path fill="none" stroke="midnightblue" d="M360.84,-22.96C378.14,-28.88 398,-35.68 412.66,-40.69"/>
<polygon fill="midnightblue" stroke="midnightblue" points="361.6,-19.52 351.01,-19.59 359.34,-26.14 361.6,-19.52"/>
</g>
</g>
</svg>
